<svg width="100" height="100" viewBox="0 0 100 100" fill="none" xmlns="http://www.w3.org/2000/svg">
<path d="M90.5376 38.2314L79.0903 25.2084C77.5598 23.4663 75.6777 22.0682 73.5679 21.1061C71.458 20.144 69.1683 19.6397 66.8495 19.6265L66.0163 19.6218M90.3393 73.1187L67.7652 72.9904L51.4177 60.5839C51.4177 60.5839 48.1059 58.3199 43.2439 54.3807C33.0296 46.1136 43.3644 33.1775 53.5865 40.0737C61.9114 45.6908 69.9457 50.4279 69.9457 50.4279" stroke="#121D5B" stroke-width="5" stroke-linecap="round" stroke-linejoin="round"/>
<path d="M65.8545 48.3521L66.0061 21.6736C66.0185 19.4965 65.1655 17.4037 63.6348 15.8555C62.1041 14.3073 60.0211 13.4306 57.844 13.4182L16.8002 13.1849C14.6231 13.1726 12.5302 14.0255 10.982 15.5562C9.43386 17.0869 8.55714 19.1699 8.54477 21.347L8.40481 45.9733C8.39244 48.1504 9.24542 50.2433 10.7761 51.7915C12.3068 53.3396 14.3898 54.2164 16.5669 54.2287L43.2454 54.3804" stroke="#121D5B" stroke-width="5"/>
<path d="M18.7324 33.7596L18.6917 33.7142M55.6719 33.9695L55.6311 33.9241M37.1557 42.0323C39.3328 42.0447 41.4257 41.1917 42.9739 39.661C44.5221 38.1303 45.3988 36.0473 45.4111 33.8702C45.4235 31.6931 44.5705 29.6002 43.0398 28.052C41.5092 26.5038 39.4261 25.6271 37.249 25.6148C35.0719 25.6024 32.9791 26.4554 31.4309 27.9861C29.8827 29.5168 29.006 31.5998 28.9936 33.7769C28.9813 35.954 29.8342 38.0468 31.3649 39.595C32.8956 41.1432 34.9786 42.0199 37.1557 42.0323Z" stroke="#121D5B" stroke-width="5" stroke-linecap="round" stroke-linejoin="round"/>
</svg>
